<?xml version="1.0" standalone="no"?>
<!DOCTYPE svg PUBLIC "-//W3C//DTD SVG 20010904//EN"
 "http://www.w3.org/TR/2001/REC-SVG-20010904/DTD/svg10.dtd">
<svg version="1.0" xmlns="http://www.w3.org/2000/svg"
 width="128.000000pt" height="128.000000pt" viewBox="0 0 128.000000 128.000000"
 preserveAspectRatio="xMidYMid meet">
<metadata>
Created by potrace 1.14, written by Peter Selinger 2001-2017
</metadata>
<g transform="translate(0.000000,128.000000) scale(0.100000,-0.100000)"
fill="#000000" stroke="none">
<path d="M495 1267 c-97 -33 -163 -90 -204 -176 -25 -53 -26 -66 -29 -243 -4
-185 -3 -188 17 -188 20 0 21 4 21 173 0 203 9 242 76 316 61 68 121 92 238
95 107 2 164 -6 223 -35 40 -19 63 -19 63 1 0 6 -24 22 -52 36 -48 25 -65 28
-183 31 -89 2 -142 -1 -170 -10z"/>
<path d="M548 1157 c-86 -27 -168 -114 -184 -195 -6 -28 -4 -32 15 -32 12 0
21 6 21 15 0 26 39 94 71 124 46 44 97 64 164 65 82 1 145 -25 193 -80 62 -69
66 -100 66 -425 0 -251 -2 -292 -18 -333 -13 -35 -15 -51 -7 -59 8 -8 15 -6
26 9 33 43 38 97 38 404 0 288 -1 309 -21 353 -27 62 -97 128 -158 150 -56 19
-150 21 -206 4z"/>
<path d="M944 1136 c-3 -8 5 -34 18 -58 23 -43 23 -44 23 -433 0 -378 -1 -391
-22 -437 -28 -62 -93 -123 -156 -147 -72 -27 -250 -27 -319 -1 -67 25 -119 70
-154 132 -28 52 -29 57 -32 221 -4 159 -5 167 -24 167 -19 0 -20 -5 -16 -167
4 -194 17 -239 91 -311 81 -78 148 -99 312 -96 169 4 273 62 335 189 l25 50 0
395 0 395 -27 58 c-27 56 -44 70 -54 43z"/>
<path d="M568 1017 c-41 -18 -22 -42 23 -31 81 19 147 -5 177 -66 16 -32 17
-65 16 -293 -2 -282 -4 -291 -65 -325 -36 -21 -41 -57 -6 -46 38 12 66 35 89
73 22 35 23 45 25 298 3 268 1 286 -38 341 -39 54 -153 79 -221 49z"/>
<path d="M465 897 c-4 -13 -5 -141 -3 -284 3 -247 4 -263 24 -290 25 -33 83
-75 98 -70 22 7 15 33 -13 49 -64 36 -66 44 -66 338 0 165 -4 268 -10 272 -17
13 -24 9 -30 -15z"/>
<path d="M589 857 c-34 -26 -39 -55 -39 -221 0 -91 4 -166 8 -166 5 0 16 8 25
18 12 14 16 46 17 166 0 107 5 156 15 176 19 37 6 52 -26 27z"/>
<path d="M670 846 c0 -14 5 -28 10 -31 6 -4 10 -73 10 -175 l0 -170 -41 -26
c-56 -35 -32 -52 39 -30 39 13 46 44 47 221 2 170 -1 190 -31 219 -22 23 -34
20 -34 -8z"/>
<path d="M363 838 c-6 -8 -9 -109 -8 -263 1 -238 2 -253 25 -303 47 -109 153
-168 284 -160 81 6 159 38 150 63 -7 19 -2 19 -60 -7 -94 -41 -204 -25 -277
41 -75 67 -80 92 -81 373 -1 243 -7 289 -33 256z"/>
<path d="M618 655 c-14 -32 -1 -60 28 -60 15 0 19 7 19 40 0 49 -28 61 -47 20z"/>
</g>
</svg>
